<svg width="912" height="400" viewBox="0 0 912 400" fill="none" xmlns="http://www.w3.org/2000/svg">
<path opacity="0.5" fill-rule="evenodd" clip-rule="evenodd" d="M1022.38 -219C1017.42 -215.402 1011.1 -210.271 1008.52 -206.652C1004.12 -207.653 999.349 -196.05 994.561 -199.222C992.476 -197.391 995.923 -196.39 993.476 -194.517C991.391 -193.516 989.39 -193.175 987.284 -191.962C987.092 -189.407 983.645 -187.086 981.687 -187.832C982.326 -188.47 981.495 -188.917 981.942 -189.514C984.964 -190.174 989.54 -195.432 990.689 -198.221C987.114 -194.751 981.772 -191.11 979.517 -187.086C980.134 -187.597 980.836 -188.513 981.346 -188.172C979.835 -186.852 980.665 -185.873 979.154 -184.553C978.048 -185.021 979.388 -187.065 977.58 -185.149C977.282 -184.148 977.601 -183.233 976.729 -182.147C972.494 -180.061 967.003 -175.782 964.833 -171.715C957.406 -170.331 951.916 -157.132 946.255 -161.134C943.148 -156.408 939.297 -152.299 933.87 -150.234C932.998 -149.276 934.742 -148.701 933.508 -147.7C927.422 -146.018 924.613 -136.906 918.931 -133.181C917.782 -134.926 924.145 -137.673 920.889 -138.013C915.377 -129.71 906.801 -126.985 901.46 -121.535C900.8 -122.536 903.248 -124.005 901.95 -124.92C900.524 -123.323 896.586 -120.705 895.139 -118.15C894.501 -118.469 893.756 -118.15 893.203 -119.087C890.458 -114.658 885.755 -113.147 881.052 -109.868C881.201 -108.378 883.669 -109.762 882.499 -108.42C881.52 -107.462 880.563 -106.483 879.584 -105.525C879.733 -106.632 878.86 -107.505 877.647 -106.483C874.093 -101.735 868.028 -97.6051 865.624 -92.3252C865.73 -95.1142 864.027 -91.4097 863.793 -91.2394C863.708 -91.1756 863.155 -92.0272 863.07 -91.9633C853.962 -86.3215 842.471 -67.9483 836.959 -66.6496C838.619 -66.6496 837.129 -62.2 834.15 -61.6891C832.809 -62.3065 834.384 -63.371 833.66 -64.0948C822.552 -51.7254 808.784 -39.718 795.271 -25.837C795.739 -26.135 796.25 -26.7738 796.611 -26.4545C789.695 -20.5146 785.95 -18.8325 781.31 -12.6371C775.863 -8.40042 767.18 1.07344 764.435 3.45792C765.074 3.24501 767.968 1.4568 766.989 3.07483C759.434 5.92767 754.987 10.4623 747.794 17.8712C745.517 16.7215 740.218 21.8949 741.963 23.6833C743.75 22.3207 744.304 21.1499 744.155 20.0641C745.283 19.9577 746.751 17.5306 747.56 19.5532C745.049 22.0015 737.686 30.1129 740.154 24.7691C733.941 33.5618 728.961 33.2 723.279 40.8643C718.554 38.5863 712.341 50.5299 711.021 48.039C710.127 50.7216 707.191 53.2763 703.978 53.617C707.255 48.5074 710.83 46.2932 712.617 42.8655C711.128 44.59 709.681 45.8887 708.489 45.548C707.51 48.8906 705.169 50.8492 702.169 51.8498C703.871 53.3614 700.424 54.0213 699.743 54.2555C700.317 56.0226 701.594 52.9568 702.169 54.7238C699.594 58.4922 695.189 61.7921 690.869 63.8147C691.72 62.8566 692.252 61.9624 692.082 61.1534C689.911 64.3895 684.911 65.4967 686.485 68.1792C687.72 67.3915 689.23 64.5598 690.251 65.1559C687.357 69.2649 684.378 71.3727 681.271 72.6713C681.952 72.0752 684.846 69.2224 682.846 70.3721C680.228 72.2669 680.377 73.7572 679.207 75.4391C671.674 77.6958 669.057 82.1453 663.055 86.4884C663.694 88.4471 660.416 91.0018 658.31 93.365C657.82 92.8541 657.288 92.8114 656.735 92.7689C655.628 91.9598 658.331 90.5973 656.735 89.8734C654.649 91.747 650.84 96.7289 646.414 98.0063C645.946 99.965 640.902 106.629 637.923 105.032C640.988 101.327 643.562 97.9423 646.18 96.7927C645.477 95.0469 656.884 87.5103 653.969 86.1477C654.926 86.2542 655.841 86.5524 657.012 85.2963C657.139 84.0189 658.14 82.0175 658.225 79.7607C660.587 82.571 659.906 75.6519 662.715 77.4402C664.609 76.2054 662.779 75.5027 663.566 74.417C665.226 73.4589 666.715 73.7784 668.418 72.4585C676.696 58.7052 692.465 49.4652 702.552 37.7133C699.743 39.7997 696.806 43.0144 694.295 43.057C695.04 42.1203 697.742 41.6519 697.21 40.1616C696.018 40.6726 694.657 42.461 693.571 42.3546C695.572 39.1185 699.253 39.2887 699.636 37.7559C696.657 40.3532 698.402 36.2657 698.189 36.3083C696.615 36.6489 696.125 39.0971 693.21 39.1184C693.784 39.9062 694.55 39.3741 695.146 40.0553C694.039 40.9495 693.21 40.0338 692.103 40.9067C689.039 51.3175 675.078 58.4072 669.014 68.2431C666.737 66.8167 665.992 69.4778 667.077 70.1803C664.332 71.8196 663.225 71.394 661.502 71.4153C661.927 75.8436 653.33 79.0795 652.266 83.5078C647.095 84.2955 642.796 93.5566 639.157 96.5798C639.604 96.2817 640.03 96.3243 640.37 96.814C638.795 98.6875 638.157 100.114 636.114 100.327C636.37 98.3043 637.561 99.965 638.902 98.2618C632.816 99.1772 629.262 106.735 623.346 110.865C623.112 112.143 622.218 113.505 621.537 114.847C619.622 114.74 617.239 117.763 614.962 119.935C615.643 121.34 615.536 122.873 613.025 124.768C618.026 124.768 621.942 119.552 624.687 116.039C624.368 119.105 627.304 116.677 626.262 119.509C622.857 118.892 616.536 128.046 614.004 129.579C615.089 128.791 616.238 127.62 617.026 128.706C615.579 130.175 613.855 133.816 611.684 134.029C614.387 131.857 612.302 130.878 615.089 130.644C613.046 130.452 610.918 130.665 608.663 132.006C609.429 133.475 610.769 130.771 611.451 132.837C610.961 133.326 611.174 133.709 610.833 134.156C609.173 133.816 605.13 139.053 605.13 136.222C602.193 140.331 596.618 145.27 593.107 144.589C588.042 151.316 584.445 156.979 577.678 162.131C577.04 161.684 576.508 160.641 575.742 161.195C576.167 162.365 574.955 163.771 574.763 165.048C573.359 163.941 573.486 166.389 572.571 165.793C573.167 165.027 572.337 164.452 572.443 163.749C571.443 164.984 570.507 165.559 569.655 165.815C570.422 167.284 571.784 164.58 572.443 166.645C571.188 167.794 571.507 168.71 570.741 169.796C567.527 170.328 566.932 175.629 562.122 177.673C561.782 177.034 562.122 176.311 561.165 175.757C559.505 177.652 561.08 179.078 559.59 180.952C559.186 180.313 559.781 179.547 559.483 178.908C559.696 183.932 551.014 186.764 549.396 188.233C550.014 187.786 551.163 187.658 550.61 188.467C542.055 195.599 536.118 203.072 528.733 210.268C528.286 209.906 528.882 209.012 528.009 209.544C525.009 213.142 512.219 233.942 511.007 226.491C510.538 226.789 510.028 227.428 509.666 227.108C510.177 226.491 511.113 225.788 510.751 225.298C508.687 226.235 507.006 230.089 505.154 232.303C504.175 232.303 503.261 232.026 502.239 232.303C501.175 238.413 494.77 236.901 492.152 241.628C491.046 240.84 493.748 239.478 492.152 238.754C490.131 246.674 479.171 252.528 473.191 260.512C472.063 259.703 476.256 258.128 474.043 257.489C469.999 263.535 459.253 271.711 453.869 279.034C454.252 276.458 451.57 280.333 450.464 279.545C452.315 272.881 459.083 270.518 462.87 262.875C462.083 262.62 461.551 260.448 460.572 261.576C462.381 266.473 454.315 270.476 451.464 275.692C450.677 275.33 449.634 276.905 449.038 275.223C447.357 281.057 439.377 287.976 432.397 292.532C432.546 295.534 427.396 297.024 425.842 300.516C426.353 298.94 424.523 297.684 426.077 295.938C427.609 296.321 426.14 298.983 428.013 296.896C425.991 293.618 434.078 289.125 434.461 286.869C433.12 288.018 434.504 285.592 433.014 285.421C431.929 288.487 428.971 289.296 428.268 292.298C426.077 292.298 420.948 295.236 425.353 295.193C421.586 294.767 419.352 300.303 415.883 300.303C421.459 295.321 421.757 291.744 425.608 287.742C422.055 288.785 421.437 290.765 419.054 292.83C418.522 292.362 418.479 291.808 418.437 291.276C411.201 298.089 406.881 303.134 399.242 306.072C399.603 306.562 400.37 307.009 399.838 307.626C395.22 309.244 390.049 315.674 386.963 319.016C387.602 318.463 388.218 317.973 388.665 318.761C386.559 320.911 384.345 323.743 382.728 322.529C381.749 323.785 383.856 324.573 382.239 325.893C379.919 326.596 377.812 325.829 375.45 326.894C378.387 326.766 371.024 335.58 370.705 330.896C367.428 333.685 366.853 336.389 362.81 336.602C362.576 338.156 362.618 339.646 361.725 341.307C365.534 344.437 364.917 345.842 367.79 348.247C369.599 344.905 371.066 342.584 374.216 343.989C373.79 342.499 377.748 338.667 379.557 338.667C380.579 333.11 388.24 331.641 393.049 325.957C394.518 327.979 395.092 324.765 397.305 325.34C395.688 327.234 394.518 329.044 393.177 330.896C392.751 329.087 391.687 329.576 390.028 329.704C390.432 331.428 387.665 333.643 386.133 333.579C387.069 335.665 388.836 332.174 390.006 332.599C388.666 334.984 386.623 337.496 385.644 339.838C382.686 338.773 379.217 342.457 377.749 345.544C375.94 345.672 375.812 345.544 375.94 343.755C373.024 349.802 367.002 354.805 362.448 356.466C363.81 360.383 356.404 360.83 355.638 363.235C356.532 362.746 357.384 362.618 358.192 362.852C356.447 364.087 357.383 364.896 355.638 366.11C354.34 364.598 352.51 366.621 350.914 367.217C351.127 368.345 353.574 366.961 352.361 368.643C347.85 372.348 346.019 373.604 343.977 377.713C342.359 376.946 341.742 375.541 338.869 378.458C339.55 379.054 339.891 379.693 339.848 380.374C341.529 379.629 340.806 377.308 342.274 377.947C340.146 381.481 335.741 381.162 335.72 385.931C334.698 386.314 333.549 387.527 332.804 385.931C333.89 385.143 334.592 386.931 335.826 385.058C333.549 383.993 336.018 381.502 337.422 379.884C334.103 382.886 328.293 380.864 329.634 384.76C323.952 388.677 319.206 390.444 312.886 394.234C312.482 393.616 313.056 392.828 312.758 392.19C309.439 393.999 310.503 398.108 308.013 396.192C310.354 393.786 313.503 391.253 313.609 389.188C312.652 390.04 311.737 390.572 310.928 390.423C313.928 389.124 309.971 388.592 314.567 385.356C312.78 384.376 314.865 382.844 313.844 381.737C312.099 382.333 310.12 384.483 308.502 384.185C311.226 379.373 313.801 377.308 317.504 376.67C316.993 377.564 314.567 378.756 315.44 379.458C317.929 376.584 315.014 382.439 317.504 379.565C317.461 376.648 319.142 374.881 320.185 372.582C320.675 375.009 321.42 369.41 324.186 370.751C324.676 369.58 323.952 368.579 324.676 367.387C330.762 365.918 337.848 358.275 342.274 354.89C341.125 355.188 339.784 356.742 338.869 355.401C339.359 354.911 339.146 354.528 339.465 354.081C342.594 354.188 344.019 349.163 346.637 350.547C349.105 348.035 348.679 347.779 350.893 347.034C350.531 345.799 348.935 345.608 351.871 343.181C352.467 344.054 351.276 345.182 351.871 346.055C355.851 342.393 361.426 334.132 365.725 333.706C366.47 321.869 384.218 319.719 385.282 310.607C385.772 311.075 386.473 310.096 386.984 310.352C385.516 311.395 385.388 312.246 386.623 312.885C388.985 310.309 389.049 310.543 393.177 307.797C390.453 306.54 386.963 310.564 384.069 310.373C384.431 308.67 387.389 306.583 389.049 304.688C387.368 304.263 382.963 308.585 381.643 309.905C381.579 309.968 382.558 311.331 381.771 311.948C381.026 312.544 379.494 312.182 378.728 312.8C375.131 315.695 372.216 322.21 368.279 321.763C370.194 320.251 370.471 318.974 370.109 317.782C362.788 326.681 356.702 330.598 347.764 340.051C347.403 339.689 347.722 339.242 347.509 338.859C345.169 342.819 340.317 344.926 338.401 350.1C337.997 349.461 338.593 348.695 338.273 348.056C336.528 350.376 335.464 352.591 334.379 354.826C334.528 352.931 331.549 355.252 330.251 354.613C331.123 355.316 330.996 356.146 329.868 357.147C328.272 357.7 329.591 355.656 328.293 356.55C326.229 359.467 323.569 362.469 322.462 365.258C321.76 364.62 323.718 361.554 321.611 362.49C320.44 367.387 309.63 372.922 306.438 375.456C308.311 374.455 306.076 378.117 304.863 377.755C305.119 379.288 307.927 376.968 306.8 378.713C304.714 377.947 302.543 382.162 301.33 381.992C299.288 381.46 302.757 380.14 301.693 379.458C298.884 380.608 296.011 382.29 293.074 384.44C296.053 378.33 307.885 372.22 311.545 363.172C310.29 362.746 309.715 365.599 308.992 366.429C306.268 364.385 307.098 367.919 304.991 368.26C303.289 364.13 310.417 363.257 311.545 360.276C310.907 360.83 310.29 361.319 309.843 360.532C310.332 360.042 310.119 359.659 310.46 359.212C313.737 356.423 320.441 352.378 318.845 350.142C321.398 347.949 325.718 348.545 326.973 345.629C323.803 347.481 320.653 349.014 317.865 348.205C317.397 347.673 321.143 344.501 319.078 345.544C316.716 350.228 315.206 351.356 311.907 354.847C312.844 355.06 314.205 352.399 314.95 353.996C313.375 355.358 311.567 358.147 310.333 357.147C311.162 355.167 307.693 355.997 308.268 357.04C309.906 356.061 309.183 358.765 308.737 359.446C308.098 358.999 307.225 360.297 306.438 361.021C305.842 360.361 305.204 360.021 304.502 360.063C302.948 361.532 302.629 362.81 301.82 364.172C293.585 368.388 288.754 380.97 281.646 385.718C281.923 385.398 282.178 385.1 281.774 384.866C282.327 387.485 278.093 389.231 279.348 390.167C278.454 390.38 275.198 392.424 275.581 393.19C276.518 393.51 277.858 390.87 278.731 391.487C279.05 391.998 278.752 392.573 278.497 393.169C276.241 393.467 276.518 394.17 275.581 396.086C274.73 396.192 273.879 396.32 273.049 396.469C270.559 400.024 269.112 401.217 266.473 404.453C265.941 403.984 265.899 403.431 265.856 402.899C264.941 404.538 263.771 405.73 262.089 405.922C263.111 404.133 263.494 402.409 263.664 400.748C262.111 403.452 258.302 406.497 259.174 408.839C260.26 408.179 260.132 405.773 261.6 406.411C260.451 408.242 259.621 410.009 259.153 411.713C258.578 411.01 257.834 411.351 256.982 412.436C257.131 410.456 254.407 411.01 252.981 411.393C253.982 413.033 255.429 411.713 256.493 412.926C253.918 414.863 256.557 413.991 255.748 415.098C253.428 417.738 251.662 416.545 249.428 418.504C248.853 416.801 250.683 414.736 250.641 412.969C247.683 415.46 249.045 417.333 246.746 419.718C245.895 418.76 246.534 417.674 244.81 418.76C243.98 424.04 237.021 429.511 233.51 433.62C235.042 433.854 234.319 431.512 235.808 432.045C236.192 432.683 235.149 433.513 235.085 434.216C233.936 433.598 232.425 435.323 231.446 433.513C229.999 437.516 225.934 439.368 222.934 443.435C221.955 443.349 219.039 441.923 219.039 444.414C219.678 443.86 220.295 443.371 220.742 444.158C219.039 446.543 217.613 447.969 214.294 451.29C211.421 449.098 207.633 453.27 204.335 453.994C203.781 455.591 205.824 454.25 204.931 455.548C198.163 458.742 195.312 461.935 187.8 467.556C190.396 463.809 184.267 470.111 185.373 467.088C184.012 470.004 180.713 474.411 178.819 475.071C179.351 474.028 181.33 475.987 180.266 476.519C178.628 476.859 178.777 475.327 177.606 477.733C176.585 476.157 175.372 475.88 173.967 477.03C173.521 477.924 175.287 478.478 174.457 479.436C172.371 480.351 172.244 481.011 170.818 481.628C171.329 480.734 171.435 479.883 171.18 479.095C169.818 480.947 169.647 479.138 169.605 478.499C167.775 479.67 165.945 480.777 164.263 480.947C166.051 482.693 168.179 482.374 168.264 484.886C169.988 483.545 171.265 485.184 172.754 485.461C165.774 492.784 154.858 500.875 145.92 504.26C145.686 502.173 144.601 501.109 142.153 501.513C146.111 511.2 128.874 512.648 125.512 521.696C126.853 524.357 128.151 523.484 130.364 525.528C126.214 529.02 127.257 531.766 126.959 534.683C124.724 538.196 123.15 539.069 120.405 542.667C119.894 542.283 119.405 541.964 118.702 542.922C117.702 544.561 120.66 542.305 121 544.221C117.936 547.755 120.575 551.992 116.617 554.355C119.575 555.355 119.766 557.527 120.128 558.783C119.638 558.315 118.319 559.677 118.681 560.231C119.575 559.571 119.17 560.784 118.064 561.551C118.511 559.933 112.892 561.253 114.063 563.382C116.489 562.36 120.171 559.933 120.745 563.211C122.277 561.317 123.554 561.019 124.767 561.381C124.724 562.488 124.575 563.616 124.277 564.744C125.469 565.064 126.81 564.553 128.044 564.595C126.98 567.874 122.49 574.41 117.468 574.41C115.999 576.816 117.021 582.074 112.722 581.308C113.276 580.541 114.233 578.348 113.829 576.603C111.892 578.519 111.658 583.245 108.36 582.777C109.998 576.432 115 568.725 121.49 563.935C115.915 565.468 110.871 573.707 107.509 580.031C104.615 581.223 100.444 586.183 98.9966 589.951C97.6133 590.824 96.4853 590.058 95.1234 590.931C91.5695 594.699 86.6536 606.366 82.738 601.831C80.4397 603.002 83.6745 603.343 82.3764 604.365C81.1847 604.876 80.0142 605.387 79.0992 604.024C80.5888 596.104 85.5471 587.674 87.6113 579.669C85.3343 580.073 82.8873 581.606 80.9295 579.839C70.0339 590.484 74.8429 603.045 63.543 613.754C68.5439 615.521 65.4796 621.524 71.0551 622.12C70.1826 622.929 69.6293 623.717 69.4804 624.42C72.9065 626.762 75.7582 627.933 75.4177 632.191C76.0348 632.787 76.9712 631.041 77.6096 631.445C75.971 633.063 77.7375 634.171 77.8439 635.533C78.6526 635.725 79.7592 633.724 80.5253 634.298C90.5909 640.238 97.6344 641.281 110.488 645.539C116.042 643.453 121.086 645.092 126.64 643.155C126.895 645.795 132.066 643.9 132.343 646.859C133.343 645.646 134.258 645.114 135.003 645.646C133.811 646.646 133.258 647.562 133.79 648.307C135.854 645.625 136.386 649.052 136.578 649.137C140.77 650.564 147.027 648.839 151.261 651.096C147.367 657.589 137.642 657.93 135.237 664.189C132.492 664.913 129.491 667.489 127.108 665.807C128.576 664.211 129.768 662.678 128.576 661.464C123.873 663.402 119.107 665.701 114.021 670.214C110.084 667.702 104.721 675.005 100.061 677.645C99.337 676.921 100.933 675.877 99.5712 675.239C94.8895 680.944 87.6325 686.714 81.1207 690.759C74.9706 688.481 64.9263 700.233 60.351 696.294C57.5845 698.189 54.7755 700.425 52.3495 699.956C51.2004 697.508 51.9667 694.783 48.8385 692.632C45.6038 691.93 41.6883 696.103 38.2835 696.656C39.4752 698.147 37.6874 702.213 34.8784 702.937C34.4953 701.894 35.5168 700.637 35.3678 699.552C31.2819 699.296 29.9417 697.061 26.2602 696.358C24.7706 698.083 22.7914 700.999 20.791 699.637C21.4507 698.551 23.8764 698.679 23.2168 697.21C21.6207 698.7 20.4289 697.316 18.8329 698.679C21.2588 701.085 17.003 700.701 15.9177 701.574C15.3431 703.767 17.9392 703.107 17.854 705.406C12.0232 711.708 0.723534 709.111 0 716.69C1.12786 716.562 2.46857 714.944 3.76668 713.667C10.0231 713.582 16.5351 711.602 23.0682 709.579C23.4086 710.218 23.0681 710.963 24.047 711.495C25.5366 709.622 25.6644 707.961 27.3242 706.067C28.7075 706.109 30.0904 706.109 31.8141 703.746C31.4949 707.387 34.8786 703.831 36.1767 705.172C35.134 707.259 35.4959 707.238 37.3898 708.302C36.4322 709.26 37.7727 709.899 36.1767 710.963C30.963 714.434 24.7276 718.223 18.9394 723.822C23.4721 724.163 28.6647 719.841 33.5167 717.967C36.049 721.864 38.8366 721.055 43.9439 720.544C45.9655 719.415 43.1353 719.011 45.157 717.882C50.243 720.097 57.6484 718.287 60.9256 723.801C54.6266 729.549 58.9678 733.722 52.4134 739.492C53.9456 741.195 52.4137 743.345 53.265 745.133C54.1587 745.729 55.2012 745.133 56.1801 745.133C56.8398 746.411 56.0523 747.901 55.5629 749.349C58.8188 755.651 64.0542 748.199 67.6931 751.669C64.3947 756.822 57.5847 762.506 56.2653 767.381C58.4572 765.806 61.6491 767.466 60.883 770C64.7135 768.488 67.9484 771.022 71.8001 769.212C74.8007 762.612 70.4168 758.738 74.375 751.52C83.3127 754.118 96.8682 739.108 102.422 735.83C101.656 736.298 100.954 736.362 100.358 735.723C102.401 733.083 104.125 732.636 105.955 731.593C104.146 730.486 107.743 728.57 107.402 727.25C106.381 727.654 105.316 728.25 104.487 727.271C112.275 719.905 114.233 713.539 121.384 705.406C121.022 704.917 120.277 704.47 120.788 703.852C131.47 693.91 136.557 685.287 145.324 675.068C144.962 674.579 144.217 674.132 144.728 673.514C147.388 672.173 149.921 669.576 151.283 668.426C150.836 668.724 150.41 668.681 150.07 668.192C158.156 661.294 166.136 649.457 173.01 653.268C171.903 653.566 171.435 654.055 171.925 655.077C173.882 654.226 177.542 652.906 177.628 655.886C179.671 652.969 183.458 653.459 183.458 655.844C184.118 656.184 184.841 655.844 185.395 656.802C187.246 655.546 186.714 656.099 186.969 654.502C187.438 655.013 188.012 655.056 188.544 655.098C187.821 655.886 186.821 656.738 187.821 657.27C190.8 653.693 190.119 658.228 192.311 657.845C193.971 655.822 191.247 654.438 194.376 652.182C194.056 654.098 195.95 653.417 196.929 654.694C196.525 654.886 194.162 655.652 194.992 656.631C196.269 655.418 197.12 657.185 198.27 656.972C199.142 656.163 199.695 655.375 199.844 654.673C199.397 657.738 202.313 652.139 203.122 655.013C198.929 657.27 196.844 660.613 194.269 664.573C190.566 663.402 185.714 670.023 182.011 668.873C182.416 668.128 182.735 667.404 182.735 666.702C181.373 667.489 180.245 666.659 178.968 666.85C174.159 672.599 167.583 667.468 161.476 672.726C163.327 674.77 160.944 677.283 158.071 679.007C159.901 680.795 157.879 681.924 155.751 683.478C160.22 685.777 155.326 691.419 159.858 692.356C158.752 692.526 157.581 693.676 158.284 694.655C159.22 694.868 160.582 692.207 161.327 693.803C161.774 694.421 160.476 695.294 159.752 696.103C163.817 699.594 169.243 693.782 173.712 694.464C168.158 704.108 159.262 702.468 154.027 709.75C153.538 709.281 153.07 708.791 152.581 708.323C145.409 712.9 151.538 718.734 145.899 722.928C145.601 727.654 143.856 732.572 140.429 737.767C141.323 737.788 138.472 741.876 139.216 743.302C131.151 751.371 145.984 750.179 146.856 753.713C149.793 753.543 152.857 752.415 155.602 753.671C153.857 755.502 154.857 755.736 156.198 755.225C155.538 755.863 154.9 756.523 154.262 757.162C156.666 759.291 155.006 761.122 158.39 760.27C162.093 754.437 168.051 751.648 173.201 752.734C172.478 753.522 173.755 754.033 172.478 754.905C173.712 756.949 175.755 753.33 177.096 754.629C173.223 757.439 170.094 755.097 166.285 757.46C167.711 758.078 166.541 759.078 167.626 759.738C168.626 758.908 168.286 758.269 169.201 757.439C168.945 759.078 171.286 757.567 172.35 758.61C174.393 756.46 174.734 757.418 177.33 755.821C176.904 755.012 178.968 751.776 180.373 752.074C177.181 754.969 182.16 752.265 180.373 754.969C185.118 751.393 187.31 751.159 189.608 748.646C188.48 750.733 188.119 752.734 189.608 754.416C190.672 752.883 191.311 754.224 192.162 754.033C199.078 748.604 205.25 749.732 213.294 743.09C213.336 746.986 207.718 750.222 203.568 755.651C203.888 757.524 203.228 759.547 205.271 761.186C210.208 755.672 219.699 751.946 223.125 744.111C228.637 743.111 232.829 732.083 239.277 727.292C241.809 725.419 246.981 720.011 245.831 716.435C252.897 709.771 259.004 701.446 267.58 692.611C269.091 692.973 267.644 695.656 269.516 693.569C270.133 689.205 277.007 684.67 278.391 681.136C269.878 689.056 261.728 695.549 253.492 703.788C252.875 703.384 252.088 703.98 251.428 703.682C257.429 699.211 259.004 686.948 260.792 690.759C260.813 689.801 264.324 689.141 265.899 687.118C263.835 682.733 270.985 682.115 273.794 678.539C272.687 677.73 275.39 676.367 273.794 675.643C272.538 674.706 270.9 676.516 269.665 675.43C270.112 669.98 275.028 668.49 279.263 663.7C279.986 664.019 280.476 663.721 280.348 664.785C281.242 663.359 283.923 659.122 285.455 661.145C283.753 664.232 284.456 661.847 282.668 663.21C283.008 665.488 284.796 665.169 286.668 664.274C285.902 666.446 287.881 668.213 286.179 670.534C287.137 669.682 288.052 669.15 288.86 669.32C289.329 670.491 287.796 671.96 288.733 673.046C290.095 670.832 292.648 668.83 295.777 667.468C293.819 665.594 297.543 663.21 298.564 662.529C298.969 664.147 297.777 665.701 295.883 666.638C298.437 667.361 294.436 669.065 296.245 669.895C298.713 668.511 299.522 658.739 305.225 659.506C300.267 663.253 301.48 666.105 299.628 669.405C302.906 675.707 307.332 668.469 312.013 667.17C315.695 662.529 323.994 658.398 325.995 653.97C324.037 655.035 321.356 658.994 318.845 657.504C318.057 654.694 322.611 655.546 321.505 653.395C318.887 655.056 318.823 656.802 316.525 656.184C317.163 655.546 316.333 655.12 316.759 654.502C319.163 652.97 322.441 651.799 323.185 653.14C321.887 652.161 325.505 652.65 324.271 651.33C323.249 651.735 322.398 650.883 321.483 650.5C319.185 652.97 317.099 653.991 315.29 653.055C316.95 647.626 321.909 646.817 322.356 641.707C323.569 642.09 327.335 639.706 327.463 638.066C326.633 638.982 325.973 638.833 325.399 637.96C334.017 632.446 337.891 628.21 344.721 622.333C344.019 625.144 342.487 625.591 340.955 628.252C342.551 627.847 344.253 626.506 345.7 627.124C344.828 629.508 344.104 631.467 345.339 632.552C342.934 635.49 342.53 638.514 338.763 640.536C341.38 641.068 342.806 637.981 343.977 636.044C344.338 636.406 344.807 636.087 345.19 636.278C344.807 640.536 347.424 641.068 351.255 643.219C343.126 655.035 330.57 658.931 322.696 670.938C318.759 674.153 313.013 675.877 308.247 681.732C307.566 680.668 306.566 681.839 305.949 680.412C302.544 685.564 297.437 688.417 293.308 690.12C295.351 693.037 288.392 693.42 287.839 696.294C287.137 695.975 286.647 696.273 286.754 695.209C285.328 701.17 278.22 699.083 274.964 704.789C277.305 702.979 275.156 708.536 278.731 704.64C278.561 703.171 276.114 704.534 277.263 703.214C279.348 705.534 282.902 701.063 286.243 701.468C286.924 696.763 291.605 695.975 295.478 692.271C296.564 692.59 299.629 693.931 299.714 691.653C297.905 693.803 298.798 690.014 298.394 689.375C301.16 686.565 304.842 685.181 307.63 683.073C308.439 685.628 307.97 684.968 305.438 686.693C306.842 687.991 307.013 687.182 307.63 688.843C310.332 687.076 309.332 685.841 309.928 684.372C311.652 687.438 316.44 679.731 319.398 679.263C318.526 678.581 318.632 677.73 319.76 676.729C320.079 677.432 319.781 677.921 320.845 677.793C330.081 668.469 337.38 658.824 346.722 651.288C348.339 647.264 355.596 637.981 358.873 642.069C370.981 633.894 379.791 621.971 391.921 612.029C393.794 606.6 398.795 602.342 402.86 599.702C402.264 600.086 403.051 597.85 404.434 597.403C409.627 595.742 404.583 602.47 401.625 605.238C404.009 602.576 404.03 607.601 404.413 608.963C399.902 615.308 395.412 619.587 391.645 625.272C390.24 626.379 389.091 625.655 387.644 627.102C387.027 630.551 382.643 630.7 380.473 633.511C379.238 635.129 379.771 637.705 378.409 639.174C376.876 640.813 373.918 640.728 372.578 642.09C371.769 642.899 371.003 644.943 370.386 645.71C370.45 645.625 370.003 644.666 370.151 644.517C368.704 645.965 369.002 647.668 367.832 648.988C367.619 649.222 366.427 648.328 366.257 648.392C363.874 649.542 363.64 653.566 361.874 655.631C359.426 655.993 361.873 652.352 359.575 654.332C360.682 655.673 358.426 657.526 358.469 659.037C355.085 658.42 353.17 664.658 351.787 662.082C349.148 666.02 344.211 672.684 341.083 675.622C341.7 675.132 342.189 675.664 342.657 676.218C338.976 679.816 337.805 681.03 336.592 683.712C336.209 683.35 336.55 682.903 336.337 682.498C331.06 688.183 326.612 693.101 322.739 696.06C322.739 697.018 323.037 697.934 322.739 698.934C320.568 699.211 320.675 699.935 320.675 701.702C319.015 702.021 317.972 700.169 317.27 702.213C319.951 701.574 316.567 705.3 315.801 706.556C315.078 705.854 314.014 707.429 313.375 706.088C312.397 705.407 314.375 704.278 313.737 703.554C310.63 706.854 311.737 707.897 313.248 709.814C314.993 709.239 316.951 707.28 318.717 706.535C317.546 703.597 324.037 699.615 325.995 699.275C325.356 699.914 326.186 700.339 325.74 700.957C325.25 700.616 324.803 699.85 324.165 700.361C323.569 705.385 319.291 707.173 315.184 710.75C317.759 711.027 315.376 712.751 316.759 714.22C320.589 710.388 324.313 706.407 327.931 703.086C325.697 703.916 328.272 700.595 328.421 699.722C329.889 699.318 333.677 697.614 333.89 696.443C333.251 696.954 332.783 696.401 332.315 695.847C335.975 695.421 338.274 691.823 341.551 689.545C338.295 692.398 340.593 691.866 338.763 694.485C341.38 692.845 343.04 692.122 343.253 689.29C343.615 689.652 343.977 690.014 344.339 690.354C347.701 684.606 357.171 679.901 361.831 672.918C362.342 673.259 362.789 674.025 363.406 673.514C367.151 667.106 377.046 662.124 378.11 658.143C379.664 659.293 377.77 662.209 375.791 662.614C378.643 664.764 379.494 660.059 380.537 658.611C380.473 658.696 381.324 659.229 381.26 659.314C382.792 657.015 382.047 654.545 383.941 652.331C386.367 649.499 389.006 650.628 391.836 646.625C389.091 645.944 395.305 642.942 395.603 640.707C390.176 645.731 399.753 633.17 402.157 635.618C400.434 637.109 401.136 638.237 400.327 639.6C402.859 636.789 402.115 638.556 404.094 639.45C405.839 636.917 407.137 637.662 408.712 636.3C407.329 635.384 405.499 637.449 403.988 637.407C404.669 636.747 404.881 636.172 405.072 635.597C406.647 634.916 409.223 635.959 408.712 633.404C409.308 634.064 409.946 634.426 410.648 634.362C403.668 643.006 401.37 646.412 392.666 652.288C389.389 657.738 382.43 660.038 379.792 666.574C379.068 665.956 377.94 667.915 377.259 666.957C372.258 674.025 362.001 676.75 359.767 684.393C361.193 683.073 362.789 680.753 363.895 681.711C362.278 683.116 356.702 691.185 355.638 687.055C354.702 688.438 353.936 689.78 352.127 691.291C352.914 693.548 354.702 688.843 355.638 689.95C353.595 692.292 349.403 697.87 345.807 697.593C337.018 706.492 330.804 713.688 322.973 717.457C324.548 719.607 321.164 717.584 320.292 718.67C319.504 720.373 322.526 719.969 321.632 720.948C321.143 721.438 321.355 721.821 321.015 722.289C319.461 724.482 318.398 723.141 317.014 724.12C317.44 725.717 314.695 727.761 312.886 729.677C309.779 727.335 307.992 732.572 305.97 734.403C297.628 741.961 285.86 751.201 279.731 757.673C285.711 753.777 286.477 751.244 292.244 748.817C296.585 741.599 306.033 736.447 312.035 729.805C312.864 730.763 313.929 730.145 314.822 730.635C314.801 731.742 313.546 733.019 313.482 734.126C316.142 733.019 319.079 725.653 324.42 724.674C323.505 723.205 325.739 722.332 326.973 721.416C326.08 717.393 333.528 710.261 336.805 708.004C337.38 708.792 332.443 712.453 334.613 711.623C336.082 710.175 337.55 708.643 338.614 709.792C337.975 710.857 335.315 712.198 336.06 713.05C338.146 712.028 340.636 708.217 342.125 711.325C344.445 709.558 340.082 710.622 342.125 708.43C342.508 708.6 342.955 708.43 343.466 707.812C345.764 708.855 344.338 710.431 344.551 711.772C347.701 710.558 346.339 708.962 345.892 708.281C348.382 707.727 345.998 710.921 348.084 710.431C350.765 708.962 353.148 706.939 354.149 705.832C353.531 706.301 352.978 706.194 352.446 706.088C353.531 705.449 353.404 703.022 354.872 703.661C354.362 704.278 353.425 704.981 353.787 705.47C357.49 703.746 361.022 698.466 364.342 698.551C365.044 696.89 362.363 698.338 363.384 696.635C365.661 693.356 367.172 695.379 369.215 693.697C368.96 692.909 366.768 692.42 367.874 691.419C369.768 689.886 371.96 686.16 373.344 688.14C373.088 688.907 369.96 692.143 371.641 691.291C373.663 687.863 376.387 686.778 376.025 684.053C378.43 682.541 377.642 686.331 379.664 684.755C380.111 683.861 378.344 683.308 379.174 682.349C380.473 682.349 387.154 678.773 383.303 679.688C385.686 677.964 386.027 677.517 389.006 674.728C388.559 674.11 387.495 673.578 388.027 672.812C397.497 666.02 402.881 657.377 411.116 651.266C410.669 650.457 409.456 651.053 410.031 650.181C413.329 648.03 416.075 646.327 416.479 643.049C416.99 643.517 417.054 644.07 417.075 644.624C418.416 641.984 421.778 640.238 424.119 639.046C424.225 641.814 420.48 643.07 422.289 645.923C425.438 642.367 423.927 637.918 428.481 634.703C428.311 633.212 425.864 634.596 427.013 633.276C428.949 632.254 429.183 631.658 429.566 629.998C430.779 631.254 432.354 629.913 433.822 629.38C436.333 624.186 442.526 622.93 443.909 617.181C452.634 610.454 463.636 598.872 468.446 591.293C469.765 591.74 471.553 588.972 472.702 590.654C474.149 586.566 477.937 587.248 478.299 583.65C477.66 584.203 477.043 584.693 476.596 583.905C477.447 582.436 477.66 582.394 479.639 580.158C480.256 580.669 480.831 581.457 481.703 580.265C480.916 576.39 487.13 574.814 489.833 572.877C489.258 572.025 488.449 572.813 487.768 572.771C489.471 570.706 492.748 566.958 495.067 568.385C494.216 570.003 491.812 568.534 492.28 570.45C493.068 569.875 493.642 570.684 494.344 570.556C497.558 563.233 505.559 556.611 509.304 553.503C510.688 552.353 510.049 550.523 510.645 549.99C512.241 548.564 515.05 548.968 517.072 545.754C516.689 546.35 517.795 545.094 519.008 543.816C519.476 543.327 523.796 537.493 526.541 537.749C527.669 538.451 523.264 542.028 525.201 541.24C526.818 539.367 526.988 538.366 529.095 537.365C526.839 535.875 530.116 533.342 531.776 533.256C530.776 535.322 528.669 537.557 529.223 539.409C531.649 535.833 535.714 528.658 538.565 532.256C538.203 531.894 538.969 530.957 539.544 531.298C538.459 534.172 540.033 534.151 539.182 536.705C542.31 527.359 552.525 527.38 553.631 517.246C554.44 517.821 553.887 518.588 554.61 519.163C556.164 517.694 554.844 516.651 557.291 515.054C557.866 515.841 558.654 515.309 559.228 516.012C560.356 514.607 561.697 513.18 561.91 511.903C559.909 514.202 558.228 514.373 556.695 513.5C560.483 510.817 560.42 507.602 565.208 506.474C562.909 508.049 564.825 509.007 562.527 510.583C563.867 510.966 564.995 512.691 566.655 510.796C566.208 510.178 565.144 509.646 565.698 508.88C567.017 510.838 573.869 505.005 576.635 502.322C575.784 500.47 574.38 502.514 573.486 501.151C574.465 500.981 575.614 499.853 576.763 498.597C576.636 500.492 576.849 500.044 578.466 501.237C580.339 500.002 577.934 499.384 579.317 498.213C580.636 499.64 582.615 496.404 584.041 497.106C584.956 493.785 586.573 494.168 587.19 495.403C588.042 492.572 589.127 492.188 589.255 489.74C590.787 489.655 589.681 490.251 590.702 491.166C592.405 488.718 592.361 489.101 594.468 488.143C594.809 486.994 594.618 485.929 594.958 484.779C596.554 484.652 597.171 483.055 596.533 485.376C602.619 480.777 600.278 474.901 603.704 473.176C601.342 470.217 604.619 469.025 607.343 468.109C607.173 466.619 604.726 468.003 605.896 466.662C608.045 466.13 609.067 464.895 610.62 462.659C612.195 463.383 610.982 464.533 611.472 465.427C611.961 463.766 614.174 462.872 614.025 462.17C613.132 462.659 612.28 462.787 611.472 462.553C612.621 461.424 612.28 460.509 614.025 459.295C614.387 459.657 614.749 460.019 615.111 460.381C617.239 454.314 624.793 450.396 624.942 446.969C626.176 445.095 626.9 446.905 627.985 446.117C627.495 445.606 626.963 445.542 626.41 445.521C626.772 443.498 635.284 440.561 630.305 441.646C632.752 439.496 634.859 440.241 635.412 438.006C634.178 439.028 633.305 438.176 634.327 436.941C634.157 438.155 635.114 438.453 636.391 437.048C636.242 435.962 637.114 434.748 637.732 433.556C637.412 435.834 640.626 431.981 641.009 431.001C640.562 431.299 640.051 431.938 639.668 431.619C640.498 430.511 642.371 427.148 644.03 427.254C644.243 428.042 642.222 429.17 642.818 429.916C645.095 428.915 644.499 427.276 645.989 425.317C648.904 426.722 649.202 418.887 652.415 421.08C647.116 423.571 649.244 430.703 644.03 430.15C645.988 432.257 643.137 432.683 641.605 435.451C643.307 436.026 641.732 437.09 642.094 437.857C644.626 435.919 643.073 436.09 643.307 435.217C644.158 435.153 645.201 433.535 645.861 434.833C645.35 435.451 644.414 436.153 644.775 436.643C646.499 434.365 647.967 433.79 649.265 434.323C650.968 430.959 653.777 430.192 658.629 424.274C658.906 422.741 656.841 423.827 658.161 421.868C666.141 417.205 668.716 408.285 674.44 404.197C674.334 402.111 671.44 403.026 673.717 400.599C675.441 399.897 675.823 400.983 676.398 402.26C679.42 396.405 684.485 395.703 688.911 390.508C687.826 385.462 697.508 381.758 698.019 376.371C696.274 379.118 693.38 382.035 690.975 381.949C691.486 378.82 696.763 372.731 698.508 375.882C699.87 371.943 704.935 372.433 703.616 369.346C706.467 371.07 711.894 365.492 714.298 361.596C713.937 362.171 715.426 361.298 716.618 360.021C722.789 353.336 731.238 345.991 735.557 338.241C736.175 338.752 736.749 339.561 737.622 338.348C736.749 337.368 735.834 336.41 737.26 335.09C738.367 335.559 737.047 337.603 738.835 335.687C738.686 334.622 739.282 333.11 740.899 332.897C741.452 331.301 739.409 332.621 740.303 331.343C741.261 330.492 742.176 329.96 742.984 330.13C743.516 330.747 742.027 331.641 743.112 332.174C744.112 329.619 744.857 329.512 746.389 326.745C745.24 325.425 744.793 328.405 743.006 327.234C748.879 312.289 762.754 301.005 773.011 289.402C774.48 289.786 770.585 292.979 772.65 291.936C776.374 286.294 776.267 284.165 781.523 282.377C783.311 280.588 782.119 279.247 782.63 277.672C785.269 276.863 787.78 269.326 792.1 269.688C791.036 268.091 794.632 267.452 794.419 265.217C795.803 266.494 796.356 265.366 796.228 264.131C798.548 265.983 799.399 261.96 801.442 262.535C800.995 260.533 802.655 259.426 804.975 258.298C805.528 256.701 803.485 258.042 804.357 256.744C807.592 255.211 809.273 249.803 813.104 250.931C812.763 247.908 819.785 242.011 822.701 242.075C821.02 239.69 826.893 234.623 827.808 235.56C828.617 232.835 829.681 230.067 831.086 227.236C831.362 228.023 831.277 228.854 831.575 229.642C840.917 221.126 845.982 211.971 858.793 202.518C858.133 201.922 858.239 201.22 858.686 200.475C864.751 199.9 867.56 187.254 872.05 191.49C874.519 189.042 870.986 190.021 872.178 187.764C878.115 182.591 880.924 177.396 885.542 175.885C887.585 171.861 889.394 170.839 892.352 166.219C893.331 166.9 891.352 168.007 891.99 168.753C896.459 163.92 897.949 160.556 903.418 158.81C901.524 157.298 904.758 155.042 903.779 153.403C901.013 155.915 897.608 159.193 894.31 158.512C895.714 155.723 898.672 156.83 898.566 154.999C891.373 157.32 891.394 162.77 885.436 168.071C884.925 167.603 884.861 167.049 884.84 166.517C882.286 167.752 881.009 170.796 879.732 173.032C868.135 179.908 861.155 195.173 849.472 201.007C848.259 205.478 842.875 210.566 838.661 215.377C837.725 212.908 843.811 209.395 842.79 206.925C840.364 209.289 831.788 219.997 830.639 216.144C831.596 217.102 833.043 217.996 831.851 219.273C830.787 220.849 830.149 219.529 829.17 220.487C830.319 223.404 821.148 230.238 818.232 232.814C818.679 232.516 819.105 232.558 819.445 233.048C817.849 233.261 816.658 238.498 813.615 238.86C814.827 237.86 815.359 236.944 814.827 236.22C811.507 236.901 814.615 239.307 812.04 241.159C811.04 240.478 813.04 239.371 812.401 238.626C808.784 243.203 800.633 249.675 797.696 253.997C798.271 255.764 799.548 252.699 800.122 254.466C799.229 254.977 798.037 257.382 797.335 256.531C796.93 255.913 797.526 255.126 797.228 254.487C789.567 261.725 782.992 269.667 773.415 278.204C770.521 277.757 766.669 285.613 763.69 287.891C759.775 290.892 754.902 297.45 750.327 302.645C743.027 310.926 733.812 317.633 729.067 326C728.45 325.489 727.875 324.68 727.003 325.893C727.471 326.51 728.514 327.043 727.982 327.809C725.492 329.789 723.13 330.726 720.938 330.492C721.172 331.705 721.002 332.961 720.81 334.217C721.768 333.472 722.215 330.79 723.726 331.322C722.96 332.408 723.896 333.217 722.023 334.452C717.725 334.132 720.342 334.537 716.682 336.879C717.533 336.07 717.661 335.367 717.427 334.707C716.341 338.05 710.957 339.497 710.021 342.819C713.149 340.881 713.575 339.732 716.448 338.582C714.171 341.35 713.341 341.69 711.83 344.628C710.681 344.415 712.064 341.967 710.383 343.181C709.617 346.97 701.871 346.779 700.424 351.675C701.104 350.377 703.68 349.567 702.615 350.93C701.466 352.186 700.551 351.867 699.466 352.633C700.083 356.955 694.274 358.233 693.146 361.809C691.443 362.533 690.975 361.937 690.23 361.83C690.634 363.832 686.485 368.686 685.379 369.559C683.995 368.664 687.336 367.068 686.719 366.067C682.08 371.177 681.697 374.03 680.164 376.946C679.164 378.16 678.59 376.457 677.611 377.329C679.994 378.096 676.653 382.098 674.44 384.802C673.334 383.376 672.589 382.929 672.738 382.162C673.674 382.056 675.1 380.076 675.292 378.905C673.185 379.586 675.419 376.18 674.568 375.307C675.781 374.498 676.164 374.839 676.143 375.903C678.888 371.496 684.314 367.962 687.081 363.576C687.442 364.066 687.038 365.258 688.166 364.641C686.123 364.13 689.592 362.788 688.528 362.107C686.421 362.788 688.102 359.467 688.655 358.381C688.655 359.446 689.017 359.787 690.23 358.978C689.102 355.678 694.124 355.571 693.997 353.059C695.657 352.463 694.21 355.145 696.061 353.165C695.572 352.697 695.082 352.207 694.614 351.739C696.189 349.823 701.126 344.628 702.509 343.159C703.913 342.116 699.359 342.733 702.02 340.754C703.318 342.733 706.701 334.707 709.681 336.73C713 331.067 716.554 330.939 718.789 325.489C719.597 325.893 722.853 323.849 722.555 322.444C722.045 323.487 719.725 323.828 720.874 322.7C729.663 317.207 738.26 306.668 746.623 299.919C746.006 300.388 745.453 300.281 744.943 300.175C745.581 299.536 746.24 298.876 746.879 298.237C747.411 298.706 747.453 299.26 747.475 299.792C748.262 297.216 753.029 296.96 753.539 295.193C751.731 296.151 753.902 294.001 754.519 294.214C753.838 292.894 753.774 293.319 754.519 291.318C753.731 291.978 752.859 293.234 752.199 292.894C754.859 287.273 762.584 282.888 767.138 278.715C767.989 276.543 764.265 279.14 765.307 276.926C768.138 276.735 767.308 271.455 769.67 272.583C770.181 273.903 765.265 278.161 768.947 277.629C770.309 274.393 769.585 270.476 773.948 269.07C769.947 265.941 778.14 261.023 778.565 257.254C780.438 256.807 784.737 254.678 785.609 251.677C781.694 254.764 777.927 256.935 774.565 256.19C775.075 255.573 776.012 254.87 775.65 254.38C772.309 256.531 775.522 257.702 772.373 259.809C773.692 261.236 775.756 257.51 777.118 258.702C773.415 262.769 770.096 266.473 766.542 268.517C768.436 267.282 766.01 266.665 767.393 265.494C768.159 265.366 771.181 263.791 770.67 262.96C769.436 260.384 773.607 253.614 778.438 252.315C777.821 248.824 782.737 248.079 783.29 247.482C781.651 248.462 782.353 245.758 782.8 245.077C784.439 246.759 788.972 241.33 784.865 242.288C786.844 240.265 788.163 240.797 788.737 241.308C789.482 238.988 790.461 236.646 790.568 234.453C791.419 235.411 790.78 236.497 792.504 235.411C793.185 233.75 792.078 234.389 792.376 233.367C792.844 233.069 793.249 233.112 793.589 233.601C792.738 229.28 800.697 228.982 800.399 226.831C799.76 227.385 799.144 227.875 798.697 227.087C801.08 225.043 803.485 222.701 805.485 223.191C804.591 220.849 807.741 222.126 809.252 220.168C807.528 217.102 815.508 208.65 816.785 211.226C817.53 208.692 817.402 206.563 820.914 205.669C819.615 203.157 817.189 208.501 815.572 208.096C816.062 205.839 820.977 202.901 821.658 200.602C823.871 200.389 825.467 200.198 826.51 201.539C827.574 200.006 826.638 198.771 827.106 197.324C826.468 197.835 825.787 198.75 825.297 198.409C825.723 195.344 830.064 192.171 832.107 194.513C830.575 195.344 832.128 197.728 832.596 196.919C831.745 194.705 835.257 191.852 834.916 189.574C832.214 191.213 834.491 192.107 832.235 193.683C830.469 193.172 831.234 191.746 829.085 192.491C832.234 189.766 833.511 188.318 835.044 185.827C835.746 186.551 834.171 187.615 835.533 188.233C837.725 186.806 835.256 186.061 836.022 184.869C837.342 184.4 838.768 183.187 839.917 183.89C842.045 177.907 846.024 176.012 851.472 170.221C850.557 167.965 848.557 173.117 847.45 172.053C850.898 164.708 856.941 159.47 860.708 152.359C861.112 152.977 860.516 153.764 860.836 154.403C862.134 149.868 866.092 149.57 865.198 147.165C874.051 141.821 888.415 124.895 896.906 120.637C900.566 116.89 903.205 109.843 908.44 109.865C908.908 106.522 915.186 103.371 915.611 100.561C914.781 101.221 914.93 100.05 915.377 99.3476C924.613 93.2161 924.996 86.0201 935.061 78.2919C932.933 76.7164 929.379 85.0195 927.528 81.4641C922.463 85.9988 919.803 86.2329 915.377 90.6825C915.888 90.0438 916.824 89.3625 916.484 88.8729C916.016 89.171 915.505 89.831 915.143 89.4904C917.591 87.4678 918.74 85.6581 918.421 84.0614C915.228 87.8297 911.015 92.6838 906.525 94.4721C905.822 91.9812 913.952 87.4678 913.569 86.0201C909.908 88.362 906.312 90.1716 902.524 93.429C902.949 90.7251 900.928 94.749 900.098 92.9606C901.332 89.8949 903.397 89.5541 904.588 87.7658C904.12 88.4684 901.864 88.4047 903.013 87.1698C905.056 86.1266 904.716 85.6368 906.418 83.7846C906.971 84.1891 905.546 86.8291 907.397 85.7007C908.376 82.9117 910.313 77.7809 913.483 78.2066C912.887 77.4189 912.142 77.9726 911.546 77.2487C912.781 76.099 913.952 74.9706 914.101 73.9913C914.462 74.3532 914.824 74.7152 915.186 75.0771C917.399 71.4152 918.186 69.3926 918.484 66.7527C920.442 65.4753 926.997 60.3872 926.379 58.1518C923.315 60.1317 921.591 65.4329 917.526 64.8155C911.1 71.5005 902.609 78.4833 899.055 83.2097C896.778 86.2542 892.011 89.0007 889.947 91.5767C887.862 94.1741 885.223 98.6236 881.924 98.1339C884.159 97.4101 884.606 94.2379 887.138 93.6418C887.691 92.045 885.627 93.3864 886.542 92.0877C912.823 70.5423 931.784 36.9682 959.683 11.9952C956.193 8.92943 965.003 2.77655 968.302 1.24368C967.536 -1.99239 972.855 -2.90775 971.706 -5.03673C969.706 -4.6535 967.152 -0.395599 965.386 -1.63042C965.024 -2.54587 962.662 -3.14197 963.684 -4.27034C968.919 -10.8063 975.324 -11.2108 976.558 -15.6604C973.536 -12.552 968.365 -12.8714 963.811 -7.99606C964.45 -8.74121 961.535 -11.6153 961.982 -9.78433C965.003 -7.82565 960.151 -7.10193 960.407 -4.58972C958.662 -3.01428 957.214 -3.54651 955.789 -4.31296C955.682 -7.31482 960.045 -10.9979 960.534 -14.0849C958.938 -15.5114 956.704 -14.4468 955.683 -12.1262C945.425 -7.57013 936.189 8.35448 927.124 15.593C926.145 16.5511 925.528 15.2312 924.464 16.8067C920.527 21.4692 915.441 30.4322 908.546 31.9438C906.12 35.5417 903.162 37.6068 899.8 40.6512C900.588 41.7796 899.949 43.1209 897.97 44.6324C898.055 43.1209 897.459 44.2281 896.523 43.2062C897.651 41.8011 899.013 40.3532 899.204 39.0971C898.076 39.2036 896.608 41.6306 895.799 39.6081C899.076 36.372 898.587 33.6895 901.268 30.5599C900.183 31.3263 899.353 30.411 898.119 32.2632C898.119 36.3934 892.799 41.2899 894.586 45.1434C893.182 45.9311 890.905 45.0583 891.075 43.6106C885.457 45.4202 881.605 52.829 876.498 55.2561C875.136 53.9361 876.987 52.1479 876.732 50.679C873.008 53.9789 876.285 49.2098 875.412 48.4008C874.029 52.1904 869.22 56.4698 866.177 60.4936C837.47 80.4209 813.699 112.888 788.184 133.88C782.183 141.693 774.948 149.081 770.692 154.19C769.5 158.619 764.584 165.24 760.967 166.751C760.35 169.263 753.093 176.46 750.879 178.95C753.901 175.949 750.22 178.61 749.305 178.354C753.305 174.203 756.711 171.925 755.625 169.178C756.37 168.774 757.115 168.454 757.817 168.433C757.519 168.88 756.86 169.391 757.2 169.753C760.903 167.092 754.157 168.093 756.604 165.304C758.881 166.858 759.647 161.578 761.711 164.559C760.371 166.262 758.86 165.687 759.647 167.326C764.18 163.153 767.734 158.576 769.606 155.957C766.648 156.341 764.946 161.429 762.307 163.217C761.328 163.238 760.477 162.366 759.519 162.387C756.072 164.047 754.902 167.603 751.752 167.241C757.2 159.385 758.222 163.175 762.563 158.64C762.286 158.917 761.711 158.895 762.201 158.278C765.01 154.893 767.01 154.063 769.117 150.656C770.755 150.081 776.395 149.059 773.501 146.292C771.926 148.484 769.691 150.933 767.542 150.06C762.669 153.53 763.094 158.704 759.03 159.981C760.988 157.767 761.988 155.702 761.583 153.828C759.264 155.681 761.499 156.873 758.796 158.789C758.392 158.171 758.987 157.384 758.668 156.745C757.072 159.683 753.497 164.452 751.007 163.643C754.412 158.98 757.86 155.191 760.243 151.55C760.711 152.104 761.733 152.828 761.456 151.785C761.201 151.55 760.966 151.295 760.732 151.061C754.795 153.849 755.902 158.746 750.411 159.172C752.816 157.235 753.582 154.063 756.242 153.36C755.114 150.571 759.541 145.461 762.69 143.332C753.391 147.441 752.518 157.022 746.9 163.387C745.176 162.515 749.028 158.704 745.815 159.428C741.24 168.178 728.812 173.905 722.853 180.143C727.343 173.117 731.855 167.518 737.324 163.579C738.941 162.174 735.026 163.771 736.707 162.025C741.963 159.428 748.752 150.294 753.965 143.396C754.306 144.099 754.008 144.567 755.051 144.482C755.349 138.925 762.967 135.434 765.265 131.431C764.818 131.729 764.308 132.368 763.924 132.027C771.969 125.662 781.736 116.017 786.652 107.225C787.141 107.714 787.631 108.183 788.099 108.651C794.228 99.816 803.782 87.1485 814.231 80.4635C813.359 79.7609 813.465 78.9305 814.593 77.9298C836.704 57.8535 857.303 29.8998 878.264 11.6118C877.456 12.3357 876.625 13.3365 876.072 12.3572C887.181 5.33153 894.203 -3.35487 902.439 -11.7431C904.035 -12.2328 905.482 -11.7005 907.035 -11.9986C905.461 -13.5527 905.482 -12.1263 903.524 -13.5314C908.887 -15.6817 914.037 -21.0468 917.357 -25.9009C917.718 -25.539 918.08 -25.177 918.463 -24.8151C920.101 -29.2434 923.634 -33.7143 927.443 -35.2259C926.826 -34.7149 926.337 -35.2683 925.869 -35.8218C928.082 -38.6321 930.018 -40.9102 931.465 -39.9522C932.444 -41.5915 934.381 -43.103 936.445 -42.741C937.977 -44.9126 934.615 -44.4444 935.232 -45.8708C955.342 -62.6047 980.155 -88.2802 999.733 -109.421C982.623 -93.3259 965.174 -77.4862 949.192 -59.0704C948.256 -60.1775 946.446 -55.4725 945.68 -57.7292C937.509 -47.1268 922.251 -37.9084 915.058 -27.2209C914.547 -27.5615 914.1 -28.3278 913.483 -27.8168C915.271 -26.8375 913.845 -25.3898 913.356 -24.0911C910.738 -24.6872 908.844 -19.5564 904.737 -19.1093C905.673 -16.8739 898.098 -12.5734 896.608 -11.7218C896.608 -10.7637 897.502 -9.93347 896.608 -8.82639C894.991 -9.8696 894.373 -6.31403 892.118 -6.52693C892.309 -3.50377 888.755 -1.92839 886.883 0.839294C884.287 -0.927765 882.478 3.11725 879.967 5.56558C879.413 7.16232 881.456 5.82103 880.584 7.11971C867.241 18.5311 856.175 31.3477 841.215 43.4404C841.513 42.9933 842.173 42.4823 841.832 42.1204C840.066 43.3339 841.896 44.0364 840.13 45.25C839.172 44.228 838.576 45.335 838.682 43.8234C837.108 46.8466 833.235 49.0396 830.532 51.2112C831.128 52.8931 832.171 51.3389 832.958 51.6795C831.639 52.7014 832.575 53.3826 830.894 54.4684C830.17 53.7445 831.766 52.68 830.426 52.0626C827.681 53.851 830 54.873 827.255 56.6613C825.808 54.66 824.403 58.7052 821.914 59.1097C822.297 61.3877 822.105 61.6218 823.127 62.2392C821.467 63.2186 820.253 63.9425 820.573 65.4966C820.211 65.1347 819.85 64.7728 819.488 64.4321C818.849 65.6882 816.381 70.9256 814.146 69.7546C816.7 68.094 816.849 64.1127 820.956 62.963C817.807 60.2592 811.954 73.0972 807.592 71.9475C817.913 60.7704 826.745 53.191 838.087 42.2906C837.661 41.4816 836.427 42.099 837.002 41.2048C838.066 40.5661 839.427 37.9263 840.278 38.6501C840.619 40.0979 837.363 39.7998 839.066 41.3114C841.662 39.0547 845.982 34.2431 846.961 32.7315C845.961 33.6682 842.832 34.8604 843.683 32.3908C854.004 25.5354 863.261 13.9326 871.135 6.48117C882.563 -4.31281 894.671 -14.5959 907.461 -26.0925C907.695 -25.8583 907.95 -25.6028 908.185 -25.3687C911.036 -31.564 917.505 -33.0542 919.25 -38.547C920.931 -39.5476 922.591 -40.5483 923.996 -39.6541C924.634 -40.7186 927.294 -42.0599 926.549 -42.9115C924.549 -40.6548 922.804 -40.08 921.336 -41.3148C923.889 -44.1676 931.274 -51.108 935.189 -53.6841C938.36 -59.5601 946.575 -65.3509 949.277 -70.6095C945.383 -68.8851 941.361 -60.0285 937.381 -63.073C941.297 -65.2871 941.19 -70.0773 945.766 -72.1425C944.404 -73.2708 945.51 -74.3352 947.958 -75.7616C947.319 -80.8925 957.661 -85.3209 959.747 -91.133C961.726 -91.3885 963.833 -92.5169 965.939 -93.6878C965.067 -95.1355 963.684 -92.4317 964.003 -94.6246C962.939 -93.9859 961.598 -91.3459 960.726 -92.0911C970.557 -103.204 977.26 -111.635 986.113 -121.003C982.644 -124.303 990.71 -126.879 991.455 -129.221C987.603 -128.71 995.179 -133.542 996.924 -135.395C1001.22 -139.908 1004.99 -145.784 1006.78 -148.807C1002.84 -148.318 1002.56 -143.272 998.626 -141.42C997.945 -142.42 997.562 -143.464 998.264 -144.656C999.264 -144.443 1001.56 -147.871 1000.09 -148.637C997.881 -145.486 995.945 -144.698 993.051 -143.059C994.817 -146.934 996.307 -152.831 1001.69 -153.81C1002.18 -157.494 1006.42 -160.24 1009.95 -164.924C1007.12 -166.052 1012.27 -169.991 1015.29 -173.142C1016.05 -177.165 1012.93 -175.696 1016.27 -179.891C1014.31 -179.358 1014.42 -177.293 1012.99 -177.336C1012.25 -179.976 1011.37 -182.594 1015.05 -185.894C1015.46 -185.277 1014.86 -184.489 1015.18 -183.85C1017.5 -186.554 1019.42 -190.365 1019.18 -191.451C1022.31 -192.771 1020.82 -193.346 1022.23 -195.198C1024.46 -198.136 1029.76 -200.755 1028.91 -204.012C1026.29 -203.033 1025.25 -199.243 1022.59 -200.606C1023.46 -203.416 1026.78 -202.82 1025.63 -204.353C1023.23 -203.969 1019.95 -197.71 1017.86 -199.499C1018.84 -200.478 1019.8 -201.436 1020.78 -202.415C1019.74 -203.544 1017.23 -200.904 1017.63 -203.607C1017.12 -202.713 1014.69 -201.521 1015.57 -200.818C1016.57 -201.947 1017.42 -202.075 1018.12 -201.202C1016.91 -199.924 1014.03 -197.54 1011.93 -195.751C1013.16 -201.351 1021.33 -209.313 1025.65 -213.039C1025.35 -214.103 1024.8 -215.125 1025.29 -216.296C1022.99 -214.082 1020.74 -211.868 1024.08 -213.635C1022.4 -211.655 1021.1 -212.187 1019.72 -212.166C1021.5 -217.382 1022.89 -214.465 1025.55 -217.978C1023.55 -216.488 1022.23 -216.424 1022.76 -218.787L1022.38 -219ZM897.863 158.193C898.757 159.832 896.587 160.301 895.438 160.62C894.714 159.662 897.374 158.278 897.863 158.193ZM823.744 236.369C823.233 237.178 821.658 239.754 820.467 241.798C820.445 241.244 820.381 240.712 819.871 240.223C821.339 238.903 822.254 237.668 822.063 236.603C822.68 236.178 823.105 236.987 823.765 236.348L823.744 236.369ZM647.563 433.535C646.967 432.896 646.265 432.96 645.499 433.428C644.776 432.577 645.924 431.448 647.201 430.299C647.095 431.874 648.266 430.639 648.159 432.215C649.245 431.448 650.606 428.808 651.309 430.511C650.181 430.639 648.84 432.257 647.542 433.556L647.563 433.535ZM306.545 669.469C307.374 670.512 305.204 669.81 304.586 671.406C304.225 671.045 303.863 670.683 303.501 670.342C304.352 669.171 305.033 669.299 305.821 668.767C305.842 669.384 305.885 670.001 306.545 669.49V669.469ZM121.788 575.921C118.83 577.518 117.872 582.521 115.595 581.372C116.276 579.562 119.553 574.389 121.788 575.921ZM610.237 134.689C608.173 137.478 606.023 139.905 602.47 142.438C604.151 139.074 607.067 136.733 610.237 134.689ZM1019.23 -211.506C1019.93 -210.782 1018.35 -209.718 1019.72 -209.1C1018.35 -207.397 1017.35 -208.036 1015.95 -206.077C1015.61 -206.567 1016.52 -207.269 1017.03 -207.887C1016.69 -208.376 1016.27 -208.419 1015.82 -208.121C1015.35 -209.185 1018.48 -211.442 1019.23 -211.506ZM1010.69 -178.485C1010.97 -177.293 1009.61 -175.845 1008.01 -174.376C1007.2 -175.632 1008.82 -177.251 1009.48 -178.72C1009.82 -178.23 1010.25 -178.187 1010.69 -178.485ZM996.328 -142.548C996.605 -141.228 993.476 -136.097 991.944 -138.184C994.285 -139.802 993.881 -140.185 996.328 -142.548ZM904.546 -123.217C906.993 -124.516 902.141 -117.767 901.141 -119.832C901.992 -120.492 904.269 -122.131 904.546 -123.217ZM890.096 -112.423C891.267 -112.104 888.351 -109.251 890.224 -110.379C890.33 -109.549 886.393 -104.737 885.478 -106.376C888.266 -108.569 888.777 -110.443 890.096 -112.423ZM911.738 102.562C912.802 103.691 909.419 106.565 908.206 106.799C907.61 104.755 910.908 103.222 911.738 102.562ZM825.978 57.4916C827.702 58.8329 824.191 59.8974 823.424 60.749C822.446 59.7697 824.85 57.6194 825.978 57.4916ZM770.202 115.208C768.329 114.25 772.501 112.398 772.032 111.227C771.203 111.078 770.904 112.696 769.245 113.292C767.989 121.893 756.114 128.621 749.305 136.03C743.729 142.098 740.367 148.697 735.707 152.466C735.026 152.423 734.217 153.211 733.642 152.359C732.961 155.021 729.769 155.766 727.812 158.172C725.96 157.661 727.45 156.702 725.152 159.385C725.364 157.788 724.3 158.427 723.343 157.597C724.407 156.043 725.024 157.405 725.896 157.213C726.024 155.957 726.535 154.637 726.024 153.488C727.237 152.764 728.237 153.488 729.429 152.977C730.302 151.891 729.386 151.061 730.28 149.975C728.109 149.762 725.599 154.382 722.641 153.999C724.811 151.401 726.535 151.997 728.705 149.379C726.96 149.954 725.066 151.614 723.236 152.657C720.342 158.107 724.364 160.982 720.065 165.921C721.214 166.517 722.704 164.878 724.066 164.09C722.236 169.455 716.512 170.882 715.809 175.203C714.809 175.48 713.66 176.672 712.788 176.076C711.66 177.673 710.128 182.101 708.298 181.271C707.425 182.229 709.17 182.804 707.936 183.804C702.36 184.677 699.104 194.535 694.082 196.153C693.316 200.155 687.166 205.584 684.612 207.032C684.804 212.354 674.695 220.146 669.546 222.041C665.949 225.937 667.29 226.469 663.843 229.897C664.992 228.96 668.205 228.236 667.971 227.214C669.248 228.62 666.715 230.727 663.247 234.091C663.332 234.027 663.332 233.154 663.864 232.771C658.331 237.05 652.479 250.974 642.37 252.039C644.435 250.101 646.031 248.206 646.499 246.482C645.946 248.185 638.732 251.953 640.306 254.828C638.966 256.531 637.859 256.36 636.795 256.169C636.114 255.168 635.391 254.167 637.285 252.784C636.604 251.74 635.284 255.189 634.752 253.167C637.838 249.973 640.604 249.037 643.733 245.652C641.881 245.992 639.519 247.738 636.327 250.867C641.477 241.904 645.754 237.072 654.309 230.068C652.607 228.471 650.181 231.813 648.372 230.94C654.309 226.576 655.565 220.891 659.778 218.124C660.034 218.358 660.267 218.592 660.501 218.848C661.502 219.38 660.502 220.232 659.778 221.019C661.715 221.232 662.162 218.23 660.268 217.655C661.864 216.037 662.076 214.632 664.268 212.929C664.992 213.781 663.821 214.909 662.566 216.059C665.566 216.144 667.099 210.842 668.759 207.734C669.929 205.456 670.291 208.65 671.312 207.351C672.504 204.732 682.74 194.13 686.251 193.193C687.038 191.469 687.017 190.937 685.4 190.426C686.932 188.467 688.273 187.828 689.4 188.595C689.464 184.933 693.933 183.421 697.04 181.697C698.721 179.951 694.806 181.548 696.444 180.143C697.657 178.886 697.296 179.823 697.657 180.377C699.509 178.588 697.572 177.375 700.466 175.438C700.977 176.736 701.786 177.992 703.254 179.142C704.275 178.035 701.913 177.418 701.551 176.502C703.296 174.075 704.446 175.651 706.042 174.182C703.744 173.33 704.467 167.667 708.468 168.88C707.084 170.839 706.02 170.52 704.829 171.073C705.786 171.903 706.872 171.286 706.638 172.862C707.978 169.54 709.021 170.221 711.873 168.369C711.213 167.347 711.319 165.091 708.595 165.133C710.681 164.154 712.851 162.557 714.916 161.727C715.788 162.706 714 164.069 712.724 165.346C711.958 166.283 714.809 165.964 715.512 166.177C716.405 164.878 714.362 166.198 714.916 164.601C716.171 163.579 717.32 163.345 718.682 161.578C720.214 161.493 719.108 162.068 720.151 163.004C722.151 158.874 718.214 157.831 721.747 154.935C721.087 154.701 720.385 154.808 719.555 155.681C721.874 147.292 734.068 143.758 735.962 137.158C738.282 136.413 737.728 137.669 738.75 135.093C741.58 136.009 740.091 138.67 739.112 141.225C738.154 140.671 738.473 139.947 738.132 139.309C735.515 141.374 730.195 143.503 728.897 148.506C733.153 144.078 737.367 142.779 741.048 139.287C741.644 140.948 741.793 140.458 743.346 140.586C744.666 138.585 739.963 139.82 741.282 137.584C743.027 137.861 744.666 132.858 748.326 132.006C748.879 131.197 747.73 131.346 747.113 131.772C746.985 130.069 749.965 131.091 751.241 129.111C750.56 129.111 749.816 129.451 749.049 129.835C748.283 128.451 750.433 129.153 750.986 127.897C750.624 127.578 750.114 128.217 749.645 128.515C748.858 127.386 751.794 125.726 751.475 124.533C752.965 124.491 755.774 123.809 755.242 121.51C763.243 116.805 770.33 109.95 776.99 103.456C777.352 103.818 777.714 104.18 778.076 104.542C781.396 98.5172 786.46 95.0896 790.951 90.2781C790.184 96.3883 782.29 100.263 777.459 105.883C774.82 108.992 773.905 112.781 770.287 115.187L770.202 115.208ZM805.443 75.7795C804.889 81.7407 796.015 85.8285 791.951 91.3852C792.866 86.0627 801.719 79.7182 805.443 75.7795ZM719.533 43.0997C719.512 46.1867 716.661 47.1446 714.298 50.4659C714.681 48.3582 716.66 44.2706 719.533 43.0997ZM729.493 157.937C730.599 158.746 730.025 159.789 728.641 160.939C728.28 160.577 727.918 160.215 727.535 159.853C728.173 159.215 728.833 158.576 729.472 157.916L729.493 157.937ZM651.16 87.4253C651.096 89.4904 647.648 90.8315 646.286 92.2792C646.286 90.5334 649.883 88.2769 651.16 87.4253ZM719.427 158.597C718.002 160.002 716.235 157.724 716.405 156.575C718.576 155.063 718.214 157.66 719.427 158.597ZM717.618 159.683C717.959 160.173 717.044 160.875 716.533 161.493C715.895 160.066 714.915 161.237 714.234 160.194C715.533 158.917 716.49 159.96 717.64 159.683H717.618ZM653.841 97.7509C654.267 98.9431 651.777 102.179 650.564 100.284C651.777 98.5385 652.713 98.8792 653.841 97.7509ZM634.774 108.8C633.476 109.737 631.56 110.567 631.369 112.185C629.773 112.973 632.88 106.245 634.774 108.8ZM713.107 187.977C714.085 189.468 711.319 190.852 710.064 191.724C709.127 189.915 711.745 189.51 713.107 187.977ZM629.56 107.523C631.114 108.949 625.815 111.376 626.262 112.952C624.453 114.549 625.538 110.482 624.325 111.994C625.282 110.589 627.73 109.013 629.56 107.502V107.523ZM771.777 265.111C772.373 265.983 771.181 267.133 771.777 268.006C770.862 268.602 770.223 267.282 769.095 269.219C768.117 268.134 770.457 266.537 771.777 265.111ZM766.18 269.241C764.201 271.476 763.095 273.988 760.222 275.904C759.498 273.69 764.414 270.795 766.18 269.241ZM773.82 279.651C771.798 280.12 771.394 282.739 770.053 282.675C768.414 281.653 773.266 277.565 773.82 279.651ZM765.329 272.243C765.925 273.371 764.967 275.606 763.137 275.862C763.35 274.627 763.882 272.434 765.329 272.243ZM757.2 279.63C756.945 281.397 756.2 283.249 754.029 284.229C753.157 283.526 755.583 282.355 756.093 281.461C755.391 280.609 754.199 283.015 753.306 283.526C753.518 281.121 755.242 281.057 757.2 279.651V279.63ZM743.346 297.748C744.687 299.983 739.345 301.58 739.218 303.304C738.898 300.792 741.814 300.388 743.346 297.748ZM739.941 298.259C740.133 299.515 736.6 302.41 735.579 302.623C734.515 301.942 737.984 300.622 735.941 300.09C737.218 299.855 738.601 298.961 739.941 298.259ZM668.29 230.472C665.886 235.922 663.97 237.881 660.268 242.799C659.757 241.905 662.46 240.542 660.268 239.903C664.013 236.603 665.269 233.665 668.29 230.472ZM738.005 303.07C737.516 304.539 734.962 310.33 731.685 309.372C734.324 308.585 735.983 305.072 738.005 303.07ZM732.664 302.623C733.387 303.73 732.663 305.923 731.323 306.115C731.131 305.05 730.961 303.965 732.664 302.623ZM731.685 306.477C730.578 308.712 727.109 311.373 724.747 314.099C723.875 311.288 730.004 309.606 727.79 307.456C728.663 306.285 729.323 306.434 730.11 305.881C729.642 307.03 729.748 308.904 731.685 306.477ZM571.847 170.051C573.571 170.754 570.911 172.116 570.145 173.181C568.549 172.287 570.549 170.2 571.847 170.051ZM719.172 318.229C716.107 322.636 710.574 327.107 705.68 333.834C707.616 334.984 707.702 331.152 709.809 331.152C710.851 332.514 707.574 334.516 706.17 336.219C703.871 335.878 705.084 333.749 702.892 332.983C709.021 327.234 712.128 322.146 719.172 318.207V318.229ZM634.518 254.019C636.199 255.828 632.986 258.362 630.624 260.767C629.135 258.596 632.582 255.786 634.518 254.019ZM631.092 263.173C632.859 265.004 623.495 270.816 629.518 265.473C629.667 264.77 630.22 264.003 631.092 263.173ZM699.104 341.797C700.892 342.776 697.274 344.543 696.423 345.906C696.104 344.16 697.296 344.224 699.104 341.797ZM694.125 344.586C694.912 345.714 694.082 347.077 693.146 348.439C693.21 347.737 692.848 347.119 692.167 346.523C692.805 345.884 693.465 345.224 694.103 344.586H694.125ZM686.464 360.149C686.656 360.617 685.868 363.15 684.889 362.448C684.421 362.937 684.953 363.257 685.123 363.64C683.399 364.747 684.038 363.64 683.187 362.682C684.421 360.936 685.251 361.873 686.464 360.127V360.149ZM681.25 364.641C681.271 365.258 681.314 365.875 681.974 365.365C682.846 366.067 680.42 367.238 679.909 368.154C679.718 367.089 679.547 366.003 681.25 364.662V364.641ZM672.865 379.48C673.695 381.14 670.823 381.332 670.184 383.589C668.418 382.609 672.014 380.842 672.865 379.48ZM683.783 393.127C681.484 394.596 679.186 396.065 677.462 393.638C679.526 393.723 681.867 391.849 683.783 393.127ZM672.27 383.695C672.142 384.972 670.184 388.123 673.248 385.611C674.142 387.825 670.333 388.847 668.759 390.806C669.163 387.974 670.163 387.123 672.291 383.695H672.27ZM509.794 228.279C509.687 229.854 510.858 228.62 510.751 230.195C506.878 232.516 506.048 233.325 503.218 236.263C502.984 233.963 507.496 230.961 509.773 228.279H509.794ZM676.888 394.979C679.016 395.937 674.483 400.471 673.483 398.364C675.526 396.916 675.015 395.213 676.888 394.979ZM667.184 387.336C668.269 388.464 664.864 391.338 663.672 391.572C664.225 389.699 665.566 389.742 667.184 387.336ZM501.898 236.88C503.686 237.753 500.005 240.074 499.345 240.138C499.068 239.052 500.494 237.05 501.898 236.88ZM663.055 398.683C664.247 399.641 662.609 401.664 661.353 401.813C661.225 400.876 661.8 399.812 663.055 398.683ZM656.245 411.223C652.777 414.225 651.671 418.355 648.713 420.165C647.244 419.419 648.478 418.27 647.01 417.525C648.414 417.44 650.266 414.14 651.393 416.056C650.776 414.076 654.458 412.841 656.245 411.223ZM654.905 411.841C653.479 412.053 652.373 410.116 654.543 408.604C655.246 412.202 656.522 406.241 658.799 407.966C656.522 409.647 657.076 409.584 654.905 411.841ZM656.458 423.976C656.224 426.317 654.883 426.168 653.053 427.361C653.287 424.997 654.628 425.168 656.458 423.976ZM449.549 279.651C450.272 280.099 449.698 280.716 450.145 281.206C448.655 282.845 447.442 282.632 445.889 284.718C444.952 283.377 447.932 280.077 449.528 279.651H449.549ZM614.217 451.652C614.323 454.037 610.961 454.527 611.791 456.954C609.046 459.189 607.322 459.338 606.449 462.276C605.832 461.68 605.236 461.084 604.619 460.488C607.768 458.295 610.365 453.973 614.217 451.652ZM441.654 288.231C439.313 289.402 439.356 290.637 437.398 291.744C436.376 290.382 440.59 286.635 441.654 288.231ZM605.215 462.042C605.449 465.427 601.384 469.153 598.278 469.664C598.129 473.198 597.575 476.242 592.447 478.371C592.659 476.093 597.405 474.028 595.235 470.537C599.874 467.066 602.576 463.234 605.194 462.063L605.215 462.042ZM599.512 458.359C600.555 459.402 597.639 461.936 596.469 462.106C595.788 460.828 596.384 459.359 597.937 457.763C598.405 458.316 598.874 458.87 599.512 458.359ZM594.426 461.999C595.426 463.639 592.404 463.852 590.893 466.236C590.297 465.533 589.531 466.066 588.957 465.278C590.808 464.001 592.681 462.574 594.426 461.999ZM417.267 295.96C416.862 297.641 415.67 298.812 414.223 299.707C413.308 297.833 415.841 297.982 417.267 295.96ZM599.768 476.881C600.512 477.732 597.852 479.095 597.214 480.16C597.469 478.329 596.32 479.521 595.043 480.883C594.17 478.861 598.235 478.116 599.788 476.881H599.768ZM591.872 473.922C592.234 474.284 592.596 474.645 592.957 475.007C592.149 475.816 591.34 476.625 590.532 477.434C589.255 476.519 591.361 475.114 591.872 473.943V473.922ZM412.159 299.6C412.351 300.664 411.435 301.9 409.967 303.219C409.371 302.112 410.329 299.856 412.159 299.6ZM416.16 306.434C416.798 307.158 414.053 307.946 413.372 308.499C412.457 306.541 415.053 306.349 416.16 306.434ZM413.712 311.735C414.585 312.715 412.797 314.077 411.521 315.355C410.222 314.333 412.329 311.927 413.712 311.735ZM407.754 315.504C408.371 315.014 408.393 315.589 408.116 315.866C408.925 316.951 410.286 314.269 411.031 315.866C409.712 316.887 410.648 317.569 408.967 318.655C408.435 318.548 407.903 318.442 407.264 318.91C406.371 317.931 408.648 316.504 407.754 315.525V315.504ZM583.445 494.53C582.934 494.19 582.254 495.105 581.615 495.616C580.466 495.403 581.849 492.976 580.168 494.19C580.083 493.146 583.296 493.38 584.424 493.551C582.828 495.382 584.232 495.722 581.87 496.829C581.53 496.191 582.785 495.318 583.445 494.53ZM395.858 311.48C397.178 312.544 394.815 315.759 393.432 313.907C393.602 312.821 394.752 311.65 395.858 311.48ZM403.008 319.506C404.37 320.4 402.668 321.763 403.37 322.742C402.477 323.147 401.689 322.87 400.944 322.274C401.2 321.422 401.774 320.507 403.008 319.485V319.506ZM572.273 499.895C572.315 500.449 572.358 500.981 572.869 501.471C572.188 501.897 570.996 502.067 571.656 501.237C570.975 501.173 570.166 501.982 569.592 501.13C570.251 500.917 570.911 500.704 570.57 500.172C571.187 499.725 571.613 500.555 572.273 499.917V499.895ZM570.337 504.728C568.634 503.642 568.443 503.664 568.272 501.726C569.762 501.726 572.316 502.663 570.337 504.728ZM386.367 328.15C386.708 328.64 387.133 328.682 387.58 328.384C387.24 330.215 385.899 328.512 384.665 331.279C384.218 330.492 383.601 330.981 382.962 331.535C383.026 329.683 385.835 330.811 386.367 328.15ZM549.695 500.768C547.758 506.154 538.182 514.351 535.479 518.545C534.628 514.862 545.013 506.091 549.695 500.768ZM546.885 508.603C547.247 508.965 547.609 509.327 547.971 509.689C546.822 510.924 545.672 512.073 544.694 512.222C543.821 511.243 545.587 509.902 546.885 508.603ZM544.587 513.074C544.949 513.436 545.311 513.776 545.672 514.138C544.587 514.905 543.438 516.097 542.629 515.011C543.268 514.372 543.927 513.712 544.566 513.074H544.587ZM547.971 521.228C548.29 521.739 547.673 521.909 547.481 521.718C547.481 525.039 546.141 521.143 544.8 522.931C544.46 522.292 545.715 521.419 546.375 520.632C546.843 521.185 547.332 521.739 547.95 521.228H547.971ZM531.096 522.888C532.266 524.23 529.074 526.21 528.308 527.849C527.286 525.571 530.266 525.145 531.096 522.888ZM328.548 359.787C328.421 361 327.08 363.299 325.505 363.534C324.909 362.512 327.761 361 328.548 359.787ZM458.316 583.139C451.804 584.629 452.954 580.35 459.061 575.198C458.104 575.07 456.976 576.241 455.912 576.901C454.528 576.007 457.869 574.41 457.252 573.409C458.018 572.856 458.572 573.92 459.189 574.367C463.551 569.3 463.722 568.768 468.68 563.488C470.723 564.212 471.149 561.04 473.532 561.529C474.532 559.89 471.234 562.189 472.085 560.103C475.788 556.995 476.447 558.315 479.618 554.035C478.66 552.928 476.873 557.633 476.107 555.377C478.916 553.716 480.363 551.63 481.576 549.203C482.576 549.884 482.895 550.65 482.916 551.481C484.3 550.31 484.002 549.394 482.916 548.585C485.002 545.732 486.577 546.265 488.258 546.158C488.386 551.396 476.852 557.357 475.511 562.487C468.808 567.341 463.828 572.792 457.401 578.349C458.146 578.945 459.274 576.922 460.083 577.135C461.147 578.327 457.806 580.776 456.805 579.69C456.167 581.776 456.38 582.181 458.38 583.181L458.316 583.139ZM302.31 368.601C302.778 369.75 301.246 372.071 300.118 372.22C299.926 371.155 300.841 369.921 302.31 368.601ZM298.309 367.536C300.096 368.537 297.394 371.241 296.372 369.474C297.032 368.835 297.67 368.175 298.309 367.536ZM325.229 394.085C324.973 395.639 320.76 400.216 319.76 397.363C322.271 396.81 323.292 395.49 325.229 394.085ZM299.65 372.71C298.607 377.074 292.35 379.608 290.286 382.758C290.648 381.46 290.414 380.267 289.563 379.16C292.074 376.776 295.266 376.307 296.606 373.582C297.564 373.689 298.415 374.583 299.65 372.71ZM474.255 550.672C474.723 551.843 471.68 553.524 470.744 554.908C469.85 552.268 472.148 552.545 474.255 550.672ZM309.949 390.572C309.907 391.274 310.247 391.892 310.928 392.488C309.694 394.255 308.991 392.445 307.757 394.191C306.885 393.212 308.672 391.849 309.949 390.572ZM311.779 395.256C312.141 395.617 312.503 395.979 312.865 396.341C311.333 399.535 308.992 399.684 305.821 401.919C306.906 399.066 310.141 398.343 311.779 395.277V395.256ZM306.182 402.26C303.182 407.412 297.819 408.519 294.031 414.374C293.627 413.011 293.414 413.437 292.35 411.734C295.776 410.648 301.182 406.71 300.479 404.346C301.437 403.58 302.203 403.857 302.906 404.815C304.012 403.09 302.905 403.729 301.926 402.899C303.501 401.664 304.629 403.303 306.182 402.26ZM460.785 557.612C462.466 559.188 459.147 558.911 458.231 560.87C458.019 559.294 459.274 558.57 460.785 557.612ZM445.74 552.417C441.888 559.422 432.248 566.873 426.672 572.153C425.821 573.729 428.673 573.345 429.588 572.153C430.12 573.643 427.417 574.112 426.672 575.049C425.97 574.452 426.502 573.707 425.694 573.132C424.672 572.536 423.161 575.368 421.927 576.156C425.013 566.086 434.44 562.083 444.165 551.842C444.633 552.396 445.122 552.928 445.74 552.439V552.417ZM465.871 574.197C465.998 575.283 464.211 576.645 463.679 577.816C463.083 577.114 462.317 577.646 461.743 576.858C463.317 574.58 464.296 576.475 465.871 574.197ZM291.244 413.565C292.605 415.013 290.456 416.971 288.818 418.866C288.116 418.291 288.648 417.525 287.839 416.95C289.754 416.694 289.605 414.927 291.244 413.565ZM451.188 580.903C451.89 581.904 451.783 583.011 453.252 583.905C450.294 586.311 448.336 586.673 444.633 588.887C444.676 585.693 448.825 584.437 451.188 580.903ZM442.675 602.364C443.484 601.555 444.292 600.745 445.101 599.936C438.313 608.942 428.162 620.098 416.926 628.018C416.479 628.635 417.309 629.061 416.692 629.7C415.436 630.7 414.244 631.254 413.053 631.893C412.031 630.679 414.862 628.891 416.224 627.294C415.734 626.74 415.266 626.208 414.649 626.698C418.671 621.226 428.12 613.732 433.248 604.578C435.227 603.385 437.164 602.385 438.951 602.491C440.058 600.767 437.483 601.618 437.142 600.703C438.1 599.191 440.803 599.872 440.419 598.169C442.143 597.062 441.505 598.169 442.356 599.106C444.271 596.126 445.612 593.89 447.463 592.57C446.74 590.867 445.378 593.528 444.314 594.273C444.569 591.506 448.485 588.568 450.634 587.972C452.379 588.972 450.74 592.591 453.656 589.994C452.783 593.379 444.74 596.466 445.272 599.064C449.826 596.275 455.124 588.461 459.232 588.759C455.635 595.508 449.187 597.722 444.165 603.768C443.675 603.279 443.186 602.811 442.718 602.321L442.675 602.364ZM442.462 575.176C443.42 576.177 443.101 578.008 441.611 578.178C440.505 577.39 441.696 576.241 442.462 575.176ZM439.781 582.181C439.589 581.797 439.909 581.329 439.547 580.988C433.333 587.099 433.163 588.269 428.481 594.167C422.778 592.4 434.951 582.053 437.355 578.838C440.356 577.774 442.228 578.838 439.781 582.202V582.181ZM442.335 590.462C442.845 591.612 441.697 593.017 442.207 594.188C440.462 593.762 438.015 598.318 436.376 597.105C439.568 596.04 439.036 592.144 442.335 590.462ZM408.222 593.422C407.861 593.081 407.35 593.741 406.882 594.039C406.477 593.422 408.201 592.464 407.605 591.868C406.265 591.57 404.413 594.784 402.86 595.87C403.222 592.144 408.712 587.716 409.414 585.012C410.946 585.012 411.733 586.63 411.606 587.163C413.266 587.929 412.734 586.119 414.287 585.949C415.181 584.139 412.01 586.737 411.499 585.119C415.223 581.372 416.522 581.01 417.096 578.114C419.182 577.114 417.607 578.774 420.374 575.559C423.14 577.816 417.777 579.179 417.458 581.35C420.607 581.244 422.416 573.707 424.863 576.134C418.415 581.776 413.457 592.038 404.094 596.104C404.392 594.358 406.626 595.466 408.222 593.422ZM433.822 594.593C435.631 592.996 433.95 597.147 435.759 595.551C436.398 597.126 433.95 597.02 433.461 597.126C432.461 596.445 434.461 595.317 433.822 594.593ZM433.333 597.978C430.63 602.427 421.863 609.985 422.161 606.217C426.119 605.323 427.864 600.426 433.333 597.978ZM395.965 577.497C396.859 576.858 396.199 578.561 397.178 577.731C397.858 580.307 393.113 581.925 391.347 583.543C390.049 581.074 396.135 579.605 395.965 577.497ZM391.113 582.351C390.304 583.16 389.495 583.969 388.687 584.778C388.687 584.161 388.623 583.543 387.963 584.054C387.538 583.437 389.283 582.479 388.687 581.883C389.623 581.116 390.411 581.393 391.113 582.351ZM422.161 609.112C419.884 613.243 411.733 619.374 406.86 625.804C407.414 619.651 415.011 616.117 419.501 610.326C420.118 611.901 421.224 609.879 422.182 609.112H422.161ZM373.982 594.359C372.195 594.806 370.407 599.042 368.023 598.127C367.279 599.468 367.3 600.703 365.342 602.236C364.321 601.767 362.788 602.47 363.044 600.937C364.044 599.702 364.64 601.427 365.598 600.554C366.619 599.319 365.747 598.446 364.512 599.468C368.811 593.89 371.109 591.399 376.174 587.844C375.408 589.249 375.472 591.612 373.493 591.953C375.706 594.231 376.706 590.654 377.259 588.93C377.834 589.249 380.558 588.525 379.685 589.398C380.898 590.462 377.302 591.825 376.536 593.997C378.919 593.72 381.899 588.227 383.218 588.057C382.026 587.503 380.366 587.184 382.366 585.289C384.601 588.078 387.516 586.098 390.496 583.671C390.432 584.374 390.794 585.012 391.475 585.587C384.963 589.59 376.493 602.896 368.513 609.176C367.789 608.601 368.343 607.835 367.534 607.26C366.151 608.985 367.215 610.326 365.598 612.093C365.108 611.625 364.618 611.135 364.15 610.666C363.235 611.475 363.576 612.136 362.576 612.945C361.682 614.243 363.725 612.923 363.171 614.499C362.363 615.308 361.554 616.117 360.746 616.926C360.405 616.436 359.979 616.394 359.533 616.692C359.682 615.01 358.937 613.477 361.107 611.518C360.405 611.582 359.767 611.22 359.171 610.56C361.022 610.134 361.235 607.175 363.427 607.047C363.831 606.153 363.555 605.387 362.938 604.641C367.385 601.086 369.896 598.978 373.982 594.359ZM407.328 631.105C405.754 630.36 406.967 629.231 406.477 628.337C409.648 626.038 410.052 625.101 413.159 622.397C408.669 623.398 418.075 615.137 419.948 615.627C416.862 621.737 408.712 626.102 407.307 631.105H407.328ZM410.733 630.594C411.457 631.552 408.797 632.936 408.307 633.021C407.413 631.381 409.584 630.913 410.733 630.594ZM404.54 630.275C406.222 631.275 405.371 632.638 403.562 634.128C402.221 633.489 403.796 632.446 403.072 631.722C398.135 634.532 395.262 639.578 391.283 638.407C395.262 635.597 395.688 633.426 397.476 630.062C398.497 629.785 399.412 630.083 400.519 629.21C400.646 630.764 399.88 630.934 398.455 631.978C400.263 632.936 402.285 632.318 404.52 630.253L404.54 630.275ZM389.346 646.135C389.793 647.349 386.686 649.478 386.197 647.839C386.346 647.136 386.899 646.37 387.772 645.539C388.24 646.093 388.729 646.646 389.346 646.135ZM188.396 469.174C188.694 471.835 185.587 471.324 183.65 473.176C182.416 472.389 186.586 470.813 185.352 470.047C186.523 468.663 187.14 471.047 188.396 469.195V469.174ZM177.202 488.974C174.946 492.295 170.818 493.572 169.669 497.915C168.03 499.704 167.009 497.192 165.306 499.384C164.157 499.172 165.54 496.744 163.838 497.958C165.349 494.573 167.009 492.997 169.541 490.102C170.648 489.953 171.499 490.805 171.371 491.89C173.329 490.805 175.372 489.165 177.202 488.974ZM345.615 672.386C346.36 673.237 343.7 674.6 343.062 675.643C342.083 674.664 344.487 672.513 345.615 672.386ZM350.574 681.136C351.169 682.137 348.318 683.67 347.531 684.883C345.658 682.626 348.978 683.244 350.574 681.136ZM327.74 695.23C329.804 694.421 327.974 697.636 326.399 698.722C324.143 697.423 328.272 695.826 327.74 695.23ZM152.623 552.417C151.559 554.482 149.303 556.633 151.516 557.123C148.282 561.168 142.515 558.102 144.111 553.674C147.026 552.716 150.176 550.033 152.602 552.417H152.623ZM256.514 690.503C257.876 691.398 256.642 692.675 255.173 693.995C254.577 693.292 253.812 693.825 253.237 693.037C254.386 691.802 255.514 690.652 256.514 690.482V690.503ZM105.849 605.514C107.998 606.856 105.487 608.857 105.125 610.56C107.785 613.626 110.445 612.519 110.084 616.436C108.402 618.416 107.083 617.99 105.593 618.735C102.018 616.117 102.231 615.861 100.742 612.029C101.678 610.39 104.721 608.41 102.699 607.196C103.7 606.941 104.849 605.77 105.849 605.493V605.514ZM174.478 679.922C175.074 680.923 172.18 682.775 171.562 682.839C171.392 682.03 171.924 681.136 172.776 680.178C173.222 680.966 173.84 680.476 174.478 679.922ZM100.975 619.012C100.146 619.928 99.507 619.587 98.677 620.588C97.2513 619.97 98.4219 618.97 97.3366 618.31C98.5709 618.31 99.9327 617.607 100.975 619.012ZM217.996 738.235C219.699 739.236 215.209 742.77 214.719 740.769C214.932 739.023 216.741 738.959 217.996 738.235ZM192.248 752.351C191.928 752.67 191.587 752.989 191.268 753.309C190.162 752.052 188.374 752.713 190.417 750.541C191.29 751.967 192.46 750.733 192.248 752.329V752.351Z" fill="#2EB94C"/>
</svg>
